<?xml version="1.0" standalone="no"?>
<!DOCTYPE svg PUBLIC "-//W3C//DTD SVG 20010904//EN"
 "http://www.w3.org/TR/2001/REC-SVG-20010904/DTD/svg10.dtd">
<svg version="1.0" xmlns="http://www.w3.org/2000/svg"
 width="1458.000000pt" height="1458.000000pt" viewBox="0 0 1458.000000 1458.000000"
 preserveAspectRatio="xMidYMid meet">

<g transform="translate(0.000000,1458.000000) scale(0.100000,-0.100000)"
fill="#000000" stroke="none">
<path d="M1445 8470 c-3 -5 -26 -10 -51 -10 -24 0 -44 -4 -44 -10 0 -5 -18
-10 -40 -10 -22 0 -40 -4 -40 -10 0 -5 -9 -10 -19 -10 -11 0 -23 -4 -26 -10
-3 -5 -17 -10 -31 -10 -13 0 -24 -4 -24 -10 0 -5 -9 -10 -20 -10 -11 0 -20 -4
-20 -9 0 -5 -16 -12 -36 -16 -20 -3 -46 -15 -57 -26 -11 -10 -27 -19 -34 -19
-7 0 -13 -4 -13 -8 0 -5 -12 -15 -27 -23 -31 -16 -193 -174 -193 -187 0 -5
-14 -23 -30 -40 -17 -18 -30 -39 -30 -47 0 -8 -4 -15 -10 -15 -5 0 -10 -6 -10
-13 0 -7 -9 -23 -20 -35 -11 -12 -20 -28 -20 -37 0 -8 -4 -15 -10 -15 -5 0
-10 -11 -10 -24 0 -14 -4 -28 -10 -31 -5 -3 -10 -15 -10 -26 0 -10 -4 -19 -10
-19 -5 0 -10 -13 -10 -30 0 -16 -4 -30 -10 -30 -5 0 -10 -15 -10 -34 0 -19 -4
-38 -10 -41 -5 -3 -10 -21 -10 -39 0 -17 -4 -36 -9 -41 -17 -19 -22 -123 -32
-755 -7 -443 -7 -640 0 -652 6 -10 11 -40 11 -67 0 -28 5 -53 10 -56 6 -3 10
-21 10 -40 0 -19 5 -37 10 -40 6 -3 10 -19 10 -35 0 -16 9 -45 20 -65 11 -20
20 -41 20 -48 0 -18 109 -234 126 -248 8 -6 14 -17 14 -23 0 -14 212 -226 226
-226 6 0 19 -9 29 -20 10 -11 24 -20 30 -20 7 0 18 -7 25 -15 14 -16 108 -65
127 -65 7 0 28 -9 48 -20 20 -11 49 -20 65 -20 16 0 32 -4 35 -10 3 -5 26 -10
50 -10 24 0 47 -4 50 -10 8 -13 392 -13 400 0 3 6 26 10 50 10 24 0 47 5 50
10 3 6 17 10 31 10 13 0 24 5 24 10 0 6 14 10 30 10 17 0 30 5 30 10 0 6 6 10
13 10 18 0 67 24 67 33 0 4 9 7 20 7 11 0 20 5 20 10 0 6 7 10 15 10 9 0 57
42 108 93 85 85 137 158 137 193 0 15 57 17 66 2 3 -5 9 -6 14 -3 21 13 30
-33 36 -193 l7 -172 356 2 356 3 3 55 c2 30 1 438 -3 907 -7 826 -8 851 -26
856 -11 3 -18 11 -17 18 2 7 -4 13 -12 14 -9 0 -15 9 -14 23 1 19 -3 22 -41
22 -41 0 -42 1 -40 30 2 27 0 30 -26 30 -23 0 -29 5 -29 21 0 11 -4 18 -9 15
-10 -7 -71 50 -71 65 0 8 -30 14 -52 10 -5 0 -8 5 -8 13 0 7 -9 16 -21 19 -12
3 -18 10 -14 16 4 7 -4 11 -19 12 -55 3 -61 8 -61 52 0 26 -4 32 -22 32 -27 0
-38 11 -38 38 0 18 -6 22 -35 22 -25 0 -36 5 -38 17 -2 10 -9 15 -18 11 -9 -3
-14 2 -14 17 0 11 -4 19 -9 16 -4 -3 -18 5 -31 19 -12 13 -28 21 -36 18 -9 -3
-14 2 -15 16 -1 12 -2 24 -3 29 -2 12 -46 57 -56 57 -5 0 -20 10 -35 23 -15
13 -36 24 -47 25 -12 1 -23 9 -25 18 -3 11 -12 15 -26 11 -12 -3 -19 -1 -14 3
4 5 1 15 -7 24 -8 9 -15 19 -15 24 -1 4 -4 7 -8 6 -4 0 -10 8 -14 18 -3 10
-12 18 -20 18 -8 0 -14 7 -14 15 0 10 -10 14 -32 14 -18 -1 -32 1 -31 5 3 25
-4 41 -18 41 -9 0 -22 7 -28 15 -6 9 -21 17 -34 18 -12 0 -22 7 -22 14 0 7 -6
13 -14 13 -7 0 -16 9 -19 21 -3 12 -10 18 -16 14 -6 -3 -11 1 -11 9 0 9 7 16
15 16 8 0 14 -5 13 -12 -2 -6 5 -14 15 -16 29 -6 19 22 -13 36 -17 8 -30 21
-30 32 0 13 -7 17 -30 15 -16 -1 -28 2 -27 8 1 6 -11 13 -28 17 -17 3 -30 12
-30 20 -1 8 -6 14 -13 12 -7 -1 -12 4 -12 12 0 7 -10 16 -21 19 -16 4 -20 11
-16 26 3 14 0 21 -10 21 -8 0 -11 5 -8 10 3 6 -1 13 -9 16 -9 3 -16 12 -16 20
0 8 -9 15 -20 15 -11 1 -29 2 -40 3 -11 0 -33 13 -49 29 -16 15 -33 27 -38 27
-4 0 -19 10 -33 23 -14 13 -33 26 -43 30 -10 4 -16 11 -13 16 3 5 -4 11 -15
14 -12 3 -18 10 -14 16 4 7 -4 11 -20 11 -14 0 -28 7 -32 16 -3 8 -12 13 -20
10 -8 -3 -11 -1 -8 4 3 6 2 10 -4 10 -5 0 -13 -4 -16 -10z m595 -640 c0 -5 18
-10 40 -10 22 0 40 -4 40 -10 0 -5 9 -10 20 -10 11 0 20 -4 20 -10 0 -5 9 -10
20 -10 11 0 20 -4 20 -10 0 -5 7 -10 16 -10 9 0 29 -13 44 -30 15 -16 33 -30
39 -30 15 0 61 -46 61 -61 0 -6 14 -24 30 -39 17 -15 30 -35 30 -44 0 -9 5
-16 10 -16 6 0 10 -9 10 -20 0 -11 5 -20 10 -20 6 0 10 -9 10 -20 0 -11 5 -20
10 -20 6 0 10 -18 10 -40 0 -22 5 -40 10 -40 6 0 10 -33 10 -80 0 -47 4 -80
10 -80 7 0 10 -145 10 -415 0 -270 -3 -415 -10 -415 -6 0 -10 -32 -10 -75 0
-43 -4 -75 -10 -75 -5 0 -10 -18 -10 -40 0 -22 -4 -40 -10 -40 -5 0 -10 -9
-10 -20 0 -11 -4 -20 -10 -20 -5 0 -10 -9 -10 -20 0 -11 -4 -20 -10 -20 -5 0
-10 -8 -10 -18 0 -10 -9 -24 -20 -32 -11 -8 -20 -19 -20 -24 0 -14 -92 -106
-106 -106 -6 0 -17 -7 -24 -15 -15 -18 -109 -65 -131 -65 -10 0 -21 -4 -24
-10 -3 -5 -21 -10 -40 -10 -19 0 -37 -4 -40 -10 -4 -6 -65 -10 -151 -10 -89 0
-144 4 -144 10 0 6 -13 10 -30 10 -16 0 -30 5 -30 10 0 6 -11 10 -25 10 -14 0
-25 5 -25 10 0 6 -9 10 -20 10 -11 0 -20 5 -20 10 0 6 -8 10 -18 10 -10 0 -24
9 -32 20 -8 11 -20 20 -27 20 -17 0 -103 86 -103 103 0 7 -9 19 -20 27 -11 8
-20 22 -20 32 0 10 -4 18 -10 18 -5 0 -10 9 -10 20 0 11 -4 20 -10 20 -5 0
-10 9 -10 20 0 11 -4 20 -10 20 -5 0 -10 18 -10 40 0 22 -4 40 -10 40 -6 0
-10 35 -10 85 0 50 -4 85 -10 85 -6 0 -10 140 -10 400 0 260 4 400 10 400 6 0
10 33 10 79 0 44 5 83 10 86 6 3 10 21 10 40 0 19 5 37 10 40 6 3 10 14 10 24
0 21 27 78 41 87 6 3 13 14 17 24 10 27 122 140 138 140 8 0 14 5 14 10 0 6 9
10 20 10 11 0 20 5 20 10 0 6 9 10 20 10 11 0 20 5 20 10 0 6 9 10 20 10 11 0
20 4 20 10 0 5 16 12 35 16 19 3 38 10 41 15 7 13 324 12 324 -1z"/>
<path d="M3870 6386 c0 -9 5 -16 10 -16 6 0 10 -30 10 -69 0 -39 5 -73 10 -76
6 -3 10 -40 10 -81 0 -43 4 -74 10 -74 6 0 10 -30 10 -70 0 -40 4 -70 10 -70
6 0 10 -31 10 -74 0 -41 5 -78 10 -81 6 -3 10 -40 10 -81 0 -43 4 -74 10 -74
6 0 10 -30 10 -69 0 -39 5 -73 10 -76 6 -3 10 -40 10 -81 0 -43 4 -74 10 -74
6 0 10 -30 10 -70 l0 -70 208 0 c115 0 324 3 465 7 l257 6 0 52 c0 28 5 56 11
62 13 13 4 82 -11 84 -6 1 -14 2 -19 3 -13 2 -26 16 -26 29 0 7 -14 13 -30 14
-17 0 -36 2 -42 2 -7 1 -13 10 -13 22 0 11 -4 18 -9 15 -12 -8 -29 16 -26 37
2 10 -3 17 -11 17 -9 0 -13 4 -10 8 8 14 -32 42 -59 42 -18 0 -25 5 -25 20 0
11 3 19 8 19 22 -4 22 4 -3 29 -15 15 -30 27 -34 27 -15 1 -31 18 -31 34 0 19
-57 54 -72 45 -4 -3 -8 2 -8 10 0 9 -7 16 -15 16 -8 0 -15 7 -15 15 0 13 -18
20 -42 16 -5 0 -8 6 -8 14 0 8 5 15 10 15 6 0 10 7 10 15 0 14 -14 18 -62 18
-10 0 -18 4 -18 8 0 5 -7 9 -15 9 -15 0 -17 3 -19 38 0 9 -8 20 -18 24 -10 4
-16 15 -13 27 5 25 -2 30 -44 33 -17 1 -31 7 -31 13 0 5 -13 16 -30 23 -16 8
-30 20 -30 28 0 12 -26 19 -52 15 -5 0 -8 12 -8 29 0 17 -4 30 -10 30 -5 0
-10 6 -10 14 0 7 -9 16 -20 19 -13 3 -18 11 -15 25 2 14 -3 22 -17 25 -11 3
-17 10 -13 16 4 7 -5 11 -24 11 -24 0 -31 4 -31 20 0 12 -5 17 -14 14 -7 -3
-16 2 -19 10 -4 9 -16 16 -27 16 -15 0 -20 7 -20 29 0 18 -6 31 -17 35 -10 3
-24 9 -30 12 -8 3 -13 -1 -13 -10z"/>
</g>
</svg>
